<?xml version="1.0" encoding="utf-8"?>
<!-- Generator: Adobe Illustrator 17.0.0, SVG Export Plug-In . SVG Version: 6.00 Build 0)  -->
<!DOCTYPE svg PUBLIC "-//W3C//DTD SVG 1.1//EN" "http://www.w3.org/Graphics/SVG/1.1/DTD/svg11.dtd">
<svg version="1.1" id="Layer_1" xmlns:sketch="http://www.bohemiancoding.com/sketch/ns"
	 xmlns="http://www.w3.org/2000/svg" xmlns:xlink="http://www.w3.org/1999/xlink" x="0px" y="0px" width="44px" height="22px"
	 viewBox="0 0 44 22" enable-background="new 0 0 44 22" xml:space="preserve">
<title>radiobox</title>
<desc>Created with Sketch.</desc>
<path id="Shape" sketch:type="MSShapeGroup" fill="#ADADAD" d="M33,19L33,19c4.418,0,8-3.582,8-8s-3.582-8-8-8s-8,3.582-8,8
	S28.582,19,33,19L33,19z M33,21L33,21c-5.523,0-10-4.477-10-10S27.477,1,33,1s10,4.477,10,10S38.523,21,33,21L33,21z"/>
<path fill="#41CC44" d="M11,1C5.477,1,1,5.477,1,11s4.477,10,10,10c5.523,0,10-4.477,10-10S16.523,1,11,1z M9.385,16L6,12.2
	l1.269-1.425l2.115,2.375l6.346-6.65L17,7.925L9.385,16z"/>
</svg>
